<?xml version="1.0" encoding="UTF-8" standalone="no"?>
<!-- Created with Inkscape (http://www.inkscape.org/) -->

<svg
   width="0.84454316in"
   height="0.29740715in"
   viewBox="0 0 21.451396 7.5541416"
   version="1.1"
   id="svg1"
   xml:space="preserve"
   inkscape:version="1.3.2 (091e20e, 2023-11-25, custom)"
   sodipodi:docname="BNgo-Business_Cards - Monochrome.svg"
   xmlns:inkscape="http://www.inkscape.org/namespaces/inkscape"
   xmlns:sodipodi="http://sodipodi.sourceforge.net/DTD/sodipodi-0.dtd"
   xmlns="http://www.w3.org/2000/svg"
   xmlns:svg="http://www.w3.org/2000/svg"><sodipodi:namedview
     id="namedview1"
     pagecolor="#ffffff"
     bordercolor="#000000"
     borderopacity="0.25"
     inkscape:showpageshadow="2"
     inkscape:pageopacity="0.0"
     inkscape:pagecheckerboard="0"
     inkscape:deskcolor="#d1d1d1"
     inkscape:document-units="mm"
     inkscape:zoom="1.4142136"
     inkscape:cx="1142.6846"
     inkscape:cy="561.08923"
     inkscape:window-width="1920"
     inkscape:window-height="1009"
     inkscape:window-x="-8"
     inkscape:window-y="-8"
     inkscape:window-maximized="1"
     inkscape:current-layer="layer1"><inkscape:page
       x="1.5519544e-06"
       y="4.1359914e-07"
       width="21.451397"
       height="7.5541415"
       id="page1"
       margin="0"
       bleed="0" /></sodipodi:namedview><defs
     id="defs1" /><g
     inkscape:label="Layer 1"
     inkscape:groupmode="layer"
     id="layer1"
     transform="translate(-100.67247,-185.74004)"><path
       style="fill:#000000"
       d="m 105.3727,193.20842 c -1.64555,-0.36623 -2.85921,-1.76405 -2.98815,-3.44157 l -0.0264,-0.34388 h -0.84283 -0.84284 v -0.28988 -0.28989 l 0.88001,-2.9e-4 0.88,-2.9e-4 0.0723,-0.29995 c 0.87467,-3.62731 6.13743,-3.73872 7.25514,-0.15358 l 0.11018,0.35341 0.40167,-0.1336 c 0.92166,-0.30656 1.89454,-0.26756 2.7256,0.10926 0.15257,0.0692 0.28087,0.12095 0.28511,0.11506 0.004,-0.006 0.0592,-0.17829 0.12216,-0.3831 1.1448,-3.72469 6.35612,-3.56997 7.31143,0.21708 l 0.0444,0.176 h 0.6817 0.6817 v 0.28989 0.28988 h -0.65635 -0.65634 l -0.0259,0.38306 c -0.2998,4.4316 -6.87145,4.62412 -7.50075,0.21974 -0.11832,-0.82812 -1.87276,-1.18337 -3.06242,-0.6201 -0.28449,0.1347 -0.25987,0.0932 -0.31418,0.5302 -0.27407,2.20555 -2.40864,3.74583 -4.53521,3.27255 z m 1.60041,-0.76683 c 2.20556,-0.61119 2.96499,-3.3672 1.3883,-5.0382 -1.37314,-1.45529 -3.83993,-1.16491 -4.8436,0.57016 -1.35436,2.34134 0.84886,5.19032 3.4553,4.46804 z m 10.45533,0.084 c 2.49531,-0.34706 3.52641,-3.39535 1.74954,-5.17222 -1.48476,-1.48477 -4.02226,-1.04602 -4.90427,0.84796 -1.0195,2.18922 0.77915,4.65467 3.15473,4.32426 z"
       id="path4"
       inkscape:export-filename="..\path4.svg"
       inkscape:export-xdpi="350"
       inkscape:export-ydpi="350" /></g><style
     id="style1" /><style
     id="style1-7" /><style
     id="style1-0" /></svg>
